# xmcd
#
# Track frame offsets:
#	150
#	20187
#	34025
#	55775
#	66312
#	79982
#	101449
#	122712
#	142317
#	162112
#	178044
#	210717
#	227617
#	241932
#	263202
#	278914
#
# Disc length: 3901 seconds
#
# Revision: 1
# Processed by: cddbd v1.5.2PL0 Copyright (c) Steve Scherf et al.
# Submitted via: audiograbber 1.83.01
#
DISCID=e80f3b10
DTITLE=Susan Tedeschi - Mama, he treats your daughter mean
DYEAR=2008
DGENRE=Blues
TTITLE0=Rock me right
TTITLE1=You need to be with me
TTITLE2=It hurt so bad
TTITLE3=Found someone new
TTITLE4=Can't leave you alone
TTITLE5=Just won't burn
TTITLE6=Mama, he treats your daugher mean
TTITLE7=Friar's Point
TTITLE8=Gonna move
TTITLE9='Till I found you
TTITLE10=The feeling Music brings
TTITLE11=In the garden
TTITLE12=Hampmotized
TTITLE13=Don't think twice, it's all right
TTITLE14=I fell in Love
TTITLE15=Bluea on a Holiday
EXTD=Featuring Guitarists: Derek Trucks, Sean Costello, Colonel Bruce Hampton\n
EXTD=Piano: Jimmie Johnson
EXTT0=
EXTT1=
EXTT2=
EXTT3=
EXTT4=
EXTT5=
EXTT6=
EXTT7=
EXTT8=
EXTT9=
EXTT10=
EXTT11=
EXTT12=
EXTT13=
EXTT14=
EXTT15=
PLAYORDER=
